<?xml version="1.0" encoding="utf-8"?>
<svg width="512" height="512" viewBox="0 0 512 512" xmlns="http://www.w3.org/2000/svg" fill="none">
  <rect width="512" height="512" rx="80" fill="#FFEB59"/>
  <rect x="96" y="40" width="320" height="320" rx="48" fill="#2D5B78"/>
  <path d="M208 144a48 48 0 1 1 48 48v56" stroke="#fff" stroke-width="20" stroke-linecap="round"/>
  <circle cx="256" cy="304" r="12" fill="#fff"/>
  <rect x="96" y="200" width="128" height="224" rx="24" fill="#59C1FF"/>
  <path d="M120 224h80v32h-80z" fill="#C4DFFF"/>
  <circle cx="136" cy="296" r="16" fill="#9CEB9C"/>
  <rect x="168" y="280" width="32" height="32" rx="6" fill="#FFD05B"/>
  <rect x="120" y="336" width="48" height="48" rx="8" fill="#E6E6E6"/>
  <path d="M80 432c0-8 6-14 14-16l256-48c5-1 9 5 6 9-9 14-9 32 0 46 3 4-1 10-6 9l-256-48c-8-2-14-8-14-16z" fill="#F2796E"/>
  <path d="M352 368l-256 48c-6 1-10 7-9 13 1 6 5 11 11 12l256 48c5 1 9-4 6-9-9-14-9-32 0-46 3-4-1-10-6-9z" fill="#EC5B6D"/>
  <path d="M424 424h48c22 0 40 18 40 40s-18 40-40 40h-16c-4 0-8-4-8-8v-16c0-4-4-8-8-8h-16v-48z" fill="#426B87"/>
  <rect x="424" y="424" width="64" height="16" fill="#2D5B78"/>
</svg>
